<svg width="24" height="24" viewBox="0 0 24 24" fill="none" xmlns="http://www.w3.org/2000/svg">
<path d="M20 8V14C19.9983 15.5908 19.3656 17.1159 18.2407 18.2407C17.1159 19.3656 15.5908 19.9983 14 20H8C7.73478 20 7.48043 20.1054 7.29289 20.2929C7.10536 20.4804 7 20.7348 7 21C7 21.2652 7.10536 21.5196 7.29289 21.7071C7.48043 21.8946 7.73478 22 8 22H14C16.121 21.9976 18.1544 21.1539 19.6542 19.6542C21.1539 18.1544 21.9976 16.121 22 14V8C22 7.73478 21.8946 7.48043 21.7071 7.29289C21.5196 7.10536 21.2652 7 21 7C20.7348 7 20.4804 7.10536 20.2929 7.29289C20.1054 7.48043 20 7.73478 20 8Z" fill="#924AEF"/>
<path d="M14 19C15.3256 18.9984 16.5965 18.4712 17.5338 17.5338C18.4712 16.5965 18.9984 15.3256 19 14V7C18.9984 5.6744 18.4712 4.40353 17.5338 3.46619C16.5965 2.52885 15.3256 2.00156 14 2H7C5.6744 2.00156 4.40353 2.52885 3.46619 3.46619C2.52885 4.40353 2.00156 5.6744 2 7V14C2.00156 15.3256 2.52885 16.5965 3.46619 17.5338C4.40353 18.4712 5.6744 18.9984 7 19H14ZM7.81 9.4141L9.0883 11.1817L13.3207 7.2657C13.5155 7.08556 13.7738 6.99018 14.0389 7.00053C14.304 7.01089 14.5542 7.12612 14.7343 7.3209C14.9144 7.51568 15.0098 7.77403 14.9995 8.03913C14.9891 8.30423 14.8739 8.55436 14.6791 8.7345L9.6187 13.416C9.51484 13.512 9.39179 13.5849 9.25767 13.6299C9.12355 13.6749 8.98142 13.6908 8.84067 13.6768C8.69991 13.6628 8.56373 13.6191 8.44112 13.5485C8.31852 13.478 8.21227 13.3822 8.1294 13.2676L6.19 10.5859C6.04241 10.3708 5.98474 10.1065 6.0293 9.84939C6.07387 9.59232 6.21713 9.36285 6.42853 9.20994C6.63992 9.05703 6.9027 8.9928 7.1608 9.03094C7.4189 9.06908 7.65187 9.20658 7.81 9.4141Z" fill="#924AEF"/>
</svg>
