<svg width="24" height="24" viewBox="0 0 24 24" fill="none" xmlns="http://www.w3.org/2000/svg">
<path d="M18.729 9.216C18.456 5.74275 15.5422 3 12 3C8.97 3 6.369 4.968 5.52975 7.83825C3.13575 8.66925 1.5 10.9373 1.5 13.5C1.5 16.8082 4.19175 19.5 7.5 19.5H17.25C20.145 19.5 22.5 17.145 22.5 14.25C22.5 11.8883 20.9475 9.861 18.729 9.216ZM15.693 11.5373C15.5767 11.817 15.303 12 15 12H13.5V15C13.5 15.828 12.828 16.5 12 16.5C11.172 16.5 10.5 15.828 10.5 15V12H9C8.697 12 8.42325 11.817 8.307 11.5373C8.19075 11.2568 8.25525 10.9343 8.46975 10.7198L11.4698 7.71975C11.616 7.5735 11.808 7.5 12 7.5C12.192 7.5 12.384 7.5735 12.5303 7.71975L15.5303 10.7198C15.7448 10.9343 15.8092 11.2568 15.693 11.5373Z" fill="white"/>
</svg>
