<svg width="38" height="40" viewBox="0 0 38 40" fill="none" xmlns="http://www.w3.org/2000/svg">
<path d="M14.5143 13.8399L26.354 6.88506L26.2157 20.5958C26.2797 21.3951 26.1933 22.2041 26.0164 23.0085C25.8585 23.777 25.5527 24.554 25.1393 25.2699C24.0239 27.2018 22.2244 28.5004 20.1925 29.0456C18.1961 29.6107 15.9528 29.3653 14.0195 28.2491C12.0518 27.1131 10.7533 25.3136 10.2088 23.2815C9.70024 21.2696 9.92464 19.0617 11.0401 17.1297C11.4534 16.4137 11.9733 15.7605 12.5245 15.2189C13.1316 14.663 13.8269 14.2055 14.5143 13.8399ZM14.1113 22.7207C14.3681 23.6791 14.9845 24.5132 15.8784 25.0293C16.7733 25.5459 17.8038 25.6627 18.7269 25.3855C19.6657 25.1626 20.499 24.5476 21.0159 23.6523C21.5325 22.7575 21.649 21.7274 21.3721 20.8038C21.1505 19.866 20.5335 19.0329 19.6387 18.5163C18.7448 18.0002 17.7148 17.8825 16.7566 18.139C15.8522 18.3806 15.0198 18.9974 14.5032 19.8922C13.9863 20.7875 13.8689 21.8159 14.1113 22.7207Z" fill="white"/>
<path fill-rule="evenodd" clip-rule="evenodd" d="M24.5228 29.0655C25.151 28.4724 26.1859 28.4983 26.8194 29.055C27.5396 29.7087 27.5651 30.822 26.8948 31.4847C24.9146 33.3457 22.3161 34.3757 19.6188 34.5843C16.7939 34.7662 13.9119 34.0558 11.4781 32.6506C9.00865 31.2249 6.98899 29.1054 5.73358 26.5677C4.53057 24.1073 4.1595 21.3628 4.77962 18.7166C4.98396 17.7848 5.99582 17.2705 6.88707 17.5472C7.72049 17.8374 8.22513 18.7003 8.02535 19.5409C7.59634 21.4397 7.8851 23.4193 8.74293 25.1559C9.69903 27.1395 11.2702 28.714 13.1308 29.7881C14.9923 30.8629 17.1419 31.4366 19.2998 31.2509C21.2336 31.126 23.1276 30.4066 24.5228 29.0655Z" fill="white"/>
</svg>
