<svg width="32" height="32" viewBox="0 0 32 32" fill="none" xmlns="http://www.w3.org/2000/svg">
<path d="M15.2533 6.86667L14.6 4.90667C14.5082 4.6433 14.3372 4.41479 14.1104 4.25246C13.8836 4.09013 13.6122 4.00194 13.3333 4H6.66663C5.60671 4.0031 4.59109 4.42552 3.84162 5.17499C3.09214 5.92447 2.66972 6.94009 2.66663 8V10.6667H11.4533L15.2533 6.86667Z" fill="#FFAB2D"/>
<path d="M25.3333 8H17.8933L12.9466 12.9467C12.6924 13.1923 12.3535 13.3308 12 13.3333H2.66663V24C2.66972 25.0599 3.09214 26.0755 3.84162 26.825C4.59109 27.5745 5.60671 27.9969 6.66663 28H25.3333C26.3932 27.9969 27.4088 27.5745 28.1583 26.825C28.9078 26.0755 29.3302 25.0599 29.3333 24V12C29.3302 10.9401 28.9078 9.92447 28.1583 9.17499C27.4088 8.42552 26.3932 8.0031 25.3333 8V8Z" fill="#FFAB2D"/>
</svg>
