<svg width="220" height="219" viewBox="0 0 220 219" fill="none" xmlns="http://www.w3.org/2000/svg">
<g clip-path="url(#clip0_874_37781)" filter="url(#filter0_d_874_37781)">
<path d="M83.2837 87.4495L54.361 104.79C53.2683 105.445 52.36 106.369 51.7225 107.473L46.2787 116.902C45.5881 118.098 45.9976 119.626 47.1938 120.317C47.8151 120.675 48.5617 120.75 49.2407 120.521L67.6973 114.319C69.0564 113.862 70.5477 114.011 71.7894 114.728L74.1656 116.1L90.1374 88.436L88.3556 87.4073C86.7827 86.4992 84.8407 86.5153 83.2837 87.4495ZM142.05 121.378L141.494 155.096C141.473 156.37 141.128 157.619 140.49 158.723L135.046 168.152C134.356 169.348 132.827 169.757 131.631 169.067C131.01 168.708 130.572 168.099 130.431 167.396L126.574 148.311C126.29 146.906 125.415 145.689 124.173 144.972L121.797 143.6L137.769 115.936L139.551 116.965C141.124 117.873 142.081 119.563 142.05 121.378Z" fill="#FF1849"/>
<path d="M90.1343 88.4414L74.1655 116.1L71.7948 114.731C71.4991 114.564 71.1889 114.423 70.8679 114.312L86.7367 86.8263C87.3044 86.923 87.8503 87.1199 88.3481 87.4102L90.1343 88.4414ZM140.863 118.076L124.995 145.562C124.737 145.34 124.461 145.141 124.168 144.969L121.797 143.6L137.766 115.941L139.552 116.973C140.052 117.259 140.496 117.633 140.863 118.076Z" fill="#E00E45"/>
<path d="M113.382 153.175L70.0811 128.175C68.8849 127.485 68.4754 125.956 69.166 124.76L92.6504 84.0842C103.895 64.6083 123.288 51.2084 145.482 47.5776C153.434 68.6134 151.526 92.1083 140.282 111.584L116.797 152.26C116.107 153.456 114.579 153.866 113.382 153.175Z" fill="#F0F5FC"/>
<path d="M81.2312 134.613L70.0811 128.175C68.8849 127.485 68.4754 125.956 69.166 124.76L92.6473 84.0896C103.893 64.6116 123.286 51.2089 145.482 47.5776C146.777 51.0071 147.818 54.5266 148.596 58.1082C134.109 59.7756 122.446 67.4759 108.116 82.2964C92.1203 98.8398 84.9958 117.517 81.2312 134.613Z" fill="#C0D9FC"/>
<path d="M149.894 66.06C145.756 64.6138 141.768 62.7744 137.981 60.568C134.177 58.3919 130.59 55.8576 127.269 52.9975C133.086 50.425 139.205 48.6043 145.481 47.5776C147.731 53.5268 149.213 59.7363 149.894 66.06Z" fill="#FF1849"/>
<path d="M148.596 58.1082C145.437 57.6554 137.981 60.568 137.981 60.568C134.177 58.3919 130.59 55.8576 127.269 52.9975C133.086 50.425 139.205 48.6043 145.481 47.5776C146.776 51.0071 147.817 54.5266 148.596 58.1082Z" fill="#E00E45"/>
<path d="M118.316 89.6289C110.543 85.1414 100.606 87.8042 96.1182 95.5768C91.6307 103.349 94.2935 113.287 102.066 117.775C109.839 122.262 119.776 119.599 124.264 111.827C128.751 104.054 126.089 94.1164 118.316 89.6289Z" fill="#C0D9FC"/>
<path d="M108.607 111.447C114.585 114.899 122.23 112.85 125.682 106.872C129.134 100.893 127.085 93.2482 121.107 89.7964C115.128 86.3446 107.483 88.393 104.031 94.3717C100.579 100.35 102.628 107.995 108.607 111.447Z" fill="#4C4372"/>
<path d="M125.681 106.872C123.394 110.838 119.12 113.234 114.543 113.114C116.329 112.03 117.81 110.513 118.851 108.702C122.3 102.723 120.252 95.08 114.276 91.6266C112.469 90.579 110.427 90.005 108.339 89.9598C114.227 86.3589 121.92 88.2123 125.521 94.0992C127.91 98.006 127.972 102.907 125.681 106.872Z" fill="#312B51"/>
<path d="M122.981 86.5488C115.209 82.0613 105.271 84.7242 100.783 92.4967C96.2957 100.269 98.9585 110.207 106.731 114.695C114.504 119.182 124.442 116.519 128.929 108.747C133.417 100.974 130.754 91.0363 122.981 86.5488ZM109.856 109.282C105.073 106.521 103.435 100.404 106.196 95.6217C108.957 90.8391 115.073 89.2002 119.856 91.9615C124.639 94.7227 126.278 100.839 123.516 105.622C120.757 110.404 114.643 112.044 109.86 109.284C109.859 109.284 109.857 109.283 109.856 109.282Z" fill="#FF1849"/>
<path d="M110.147 113.78C102.377 109.304 99.707 99.3792 104.183 91.6098C106.034 88.396 108.929 85.9136 112.387 84.5744C103.523 85.9319 97.4368 94.2189 98.7953 103.083C100.154 111.948 108.44 118.034 117.304 116.675C118.48 116.495 119.633 116.186 120.741 115.754C117.088 116.332 113.346 115.635 110.147 113.78Z" fill="#E00E45"/>
<path d="M105.302 157.171L70.6612 137.171C69.465 136.48 69.0555 134.952 69.7461 133.756C69.9111 133.47 70.1305 133.22 70.3934 133.019L73.8699 130.363L109.593 150.988L109.031 155.327C108.854 156.697 107.6 157.663 106.231 157.485C105.903 157.443 105.588 157.336 105.302 157.171Z" fill="#4C4372"/>
<path d="M105.302 157.171L101.329 154.877L102.65 153.864C103.747 153.033 103.964 151.468 103.131 150.37C102.931 150.105 102.678 149.882 102.389 149.715L71.71 132.003L73.8693 130.363L109.593 150.988L109.036 155.328C108.859 156.697 107.606 157.665 106.236 157.488C105.907 157.445 105.589 157.338 105.302 157.171Z" fill="#312B51"/>
<path d="M99.889 154.046L76.0733 140.296C76.0733 140.296 70.4429 140.378 69.3657 149.413C68.2383 158.866 74.2311 170.986 74.2311 170.986C74.2311 170.986 87.7239 170.116 95.3465 164.413C102.633 158.963 99.889 154.046 99.889 154.046Z" fill="#FFE161"/>
<path d="M92.3113 149.671L83.6511 144.671C83.6511 144.671 80.2695 145.233 78.8185 150.541C77.3013 156.094 79.2312 162.326 79.2312 162.326C79.2312 162.326 85.5935 160.881 89.6438 156.791C93.5154 152.88 92.3113 149.671 92.3113 149.671Z" fill="#FF9325"/>
</g>
<defs>
<filter id="filter0_d_874_37781" x="-7.42578" y="-4" width="234.564" height="234.564" filterUnits="userSpaceOnUse" color-interpolation-filters="sRGB">
<feFlood flood-opacity="0" result="BackgroundImageFix"/>
<feColorMatrix in="SourceAlpha" type="matrix" values="0 0 0 0 0 0 0 0 0 0 0 0 0 0 0 0 0 0 127 0" result="hardAlpha"/>
<feOffset dy="4"/>
<feGaussianBlur stdDeviation="4"/>
<feColorMatrix type="matrix" values="0 0 0 0 0 0 0 0 0 0 0 0 0 0 0 0 0 0 0.12 0"/>
<feBlend mode="normal" in2="BackgroundImageFix" result="effect1_dropShadow_874_37781"/>
<feBlend mode="normal" in="SourceGraphic" in2="effect1_dropShadow_874_37781" result="shape"/>
</filter>
<clipPath id="clip0_874_37781">
<rect width="160" height="160" fill="white" transform="translate(80.5742) rotate(30)"/>
</clipPath>
</defs>
</svg>
