<?xml version="1.0"?>
<svg xmlns="http://www.w3.org/2000/svg" width="1210" height="118" viewBox="0 0 235 23" fill="none"><path opacity="0.827996" fill-rule="evenodd" clip-rule="evenodd" d="M234.251 13.4384C234.058 14.0703 231.431 15.3398 231.223 14.9171C231.112 14.6895 230.768 14.6261 230.45 14.7775C229.822 15.0552 227.143 15.0516 224.652 14.7736C223.805 14.6665 221.37 14.5854 219.211 14.5749C217.053 14.5645 213.791 14.5207 211.888 14.4779C210.029 14.4622 208.063 14.4555 207.571 14.4985C206.91 14.545 206.814 14.433 207.17 14.0305C207.448 13.7147 207.248 13.7778 206.742 14.1621C206.224 14.5427 205.732 14.6688 205.648 14.4358C205.541 14.2371 205.202 14.161 204.872 14.3089C204.553 14.4603 202.978 14.5315 201.339 14.4726C199.708 14.43 197.861 14.4179 197.199 14.4644C196.565 14.5055 194.47 14.542 192.595 14.5353C185.8 14.5308 179.869 14.6243 174.962 14.8377C172.221 14.9532 169.689 15.0219 169.397 15.0018C169.082 14.9745 168.491 15.0012 168.117 15.0389C166.448 15.2472 156.092 15.7567 155.067 15.6784C154.437 15.6238 153.708 15.6774 153.425 15.7982C152.176 16.2867 147.52 16.3558 146.832 15.8967C146.018 15.3851 145.67 13.897 146.404 14.1214C146.653 14.1974 146.782 14.0711 146.705 13.7713C146.507 12.8954 156.804 11.6492 157.758 12.4245C158.047 12.6648 158.228 12.6649 158.172 12.4265C158.054 11.9209 175.773 10.7049 176.169 11.1855C176.36 11.4095 176.616 11.4187 176.831 11.2221C177.172 10.9117 188.899 10.4068 195.93 10.4007C197.443 10.4071 200.125 10.315 201.901 10.2223C203.681 10.117 205.556 10.1652 206.089 10.3281C206.633 10.4946 207.244 10.4462 207.479 10.2279C207.714 10.0096 208.127 10.0117 208.42 10.2394C208.709 10.4797 209.004 10.4456 209.089 10.1676C209.167 9.91484 209.458 9.89337 209.759 10.1373C210.048 10.3777 210.43 10.4394 210.61 10.2734C210.791 10.1073 212.102 10.0523 213.548 10.1489C214.986 10.2293 217.003 10.2795 218.051 10.2404C222.139 10.1222 225.611 10.3683 225.968 10.8092C226.21 11.1181 226.284 11.0441 226.167 10.58C226.05 10.0743 226.18 10.031 226.623 10.36C226.955 10.6274 227.287 10.6873 227.345 10.4977C227.406 10.2955 228.118 10.1262 228.953 10.1051C229.784 10.0967 231.287 10.3487 232.332 10.6961C234.002 11.2479 234.176 11.4395 233.886 12.3042C233.712 12.8314 233.75 13.216 233.966 13.1439C234.218 13.0827 234.325 13.1983 234.251 13.4384ZM179.276 3.50907C180.655 3.30088 181.063 3.42584 180.555 3.88524C180.341 4.11258 179.734 4.16142 179.221 3.98999C178.34 3.69125 178.348 3.66448 179.276 3.50907ZM185.428 1.25613C185.644 1.32229 185.366 1.54464 184.766 1.78589C184.187 2.00404 183.685 2.0555 183.605 1.88487C183.455 1.56066 184.834 1.08944 185.428 1.25613ZM196.632 2.80419C196.861 2.87402 197.284 3.2523 197.555 3.61325C197.814 3.97054 197.856 4.21782 197.616 4.14432C197.4 4.07817 196.96 3.7096 196.689 3.34864C196.431 2.99136 196.404 2.73436 196.632 2.80419ZM201.391 3.13488C201.85 3.4365 202.392 3.5142 202.586 3.30997C202.808 3.09969 203.125 3.0065 203.378 3.08368C203.606 3.1535 203.408 3.45881 202.965 3.74784C201.949 4.35977 200.875 4.13375 200.699 3.24566C200.59 2.78758 200.799 2.74898 201.391 3.13488ZM168.127 4.48706C168.378 4.56362 168.404 4.77758 168.184 4.98509C167.98 5.18367 168.081 5.44829 168.427 5.55403C169.274 5.8129 169.898 5.17945 169.314 4.65756C169.066 4.44442 169.538 4.47882 170.349 4.72676C172.031 5.24086 172.951 5.3437 173.84 5.07981C174.196 4.98252 174.617 5.09757 174.846 5.37352C175.107 5.67297 175.185 5.62839 175.094 5.20208C174.883 4.31341 176.744 3.64582 177.231 4.44045C177.493 4.8639 178.286 4.91408 179.948 4.63918C182.389 4.20414 183.468 4.30049 183.697 5.00234C183.864 5.52063 185.393 5.42486 185.558 4.88466C185.628 4.65853 185.522 4.44782 185.272 4.37125C185.057 4.30562 185.017 3.88133 185.203 3.40232C185.443 2.78877 185.644 2.72675 185.922 3.18262C186.132 3.52138 186.211 3.98537 186.083 4.23461C185.53 5.23316 186.715 5.23833 187.566 4.24825L188.486 3.15605L188.975 4.45926C189.239 5.17205 189.524 5.52012 189.605 5.25631C189.689 4.97993 190.088 4.86845 190.518 4.99971C191.698 5.36067 192.094 4.91852 191.596 3.777C191.028 2.47705 191.469 2.52929 192.124 3.8422C192.657 4.87065 194.598 5.60153 195.942 5.25696C196.436 5.13332 196.633 4.95985 196.362 4.86343C196.092 4.76701 195.874 4.37071 195.854 3.96628C195.834 3.47918 195.999 3.40622 196.411 3.7243C196.846 4.091 196.988 4.01075 196.955 3.43734C196.935 2.99158 197.169 2.65116 197.533 2.61141C197.933 2.5826 198.016 2.91003 197.768 3.50738C197.164 4.97115 197.321 5.65113 198.239 5.46464C198.698 5.37139 199.935 5.37858 200.95 5.51059C201.982 5.63369 203.119 5.5416 203.473 5.27898C203.807 5.03783 204.362 5.01509 204.626 5.2193C204.889 5.42352 205.361 5.41659 205.608 5.20382C205.934 4.90513 206.117 4.94726 206.204 5.34479C206.299 5.71719 206.728 5.80712 207.63 5.62954C208.563 5.43413 208.989 5.53662 209.215 5.99047C209.461 6.46417 209.584 6.48807 209.707 6.08606C209.796 5.79711 210.179 5.65322 210.56 5.7699C210.942 5.88657 212.647 5.98206 214.312 5.9965C215.969 5.99473 218.32 6.15053 219.456 6.31901C220.65 6.50572 221.565 6.41446 221.602 6.1235C221.634 5.80376 222.407 5.79275 223.571 6.07996C225.856 6.62724 228.431 6.94755 228.837 6.72828C228.995 6.63911 228.727 6.44746 228.262 6.30526C227.809 6.16671 227.224 5.56214 226.961 4.97335C226.58 4.08753 226.622 3.90801 227.224 3.85852C227.699 3.83903 227.764 4.01003 227.455 4.46514C227.091 4.93079 227.152 5.03169 227.634 4.90441C228.037 4.78037 228.145 4.85451 227.905 5.08349C226.821 6.07075 232.398 7.32245 233.967 6.45591C234.649 6.05993 234.69 5.83907 234.223 4.67972C233.861 3.73108 233.649 3.52889 233.487 4.01519C233.314 4.49785 233.211 4.4938 233.099 4.00631C232.988 3.64282 232.784 3.4155 232.595 3.5225C232.413 3.60437 231.592 3.55947 230.786 3.42297C230.004 3.29377 228.802 3.13219 228.195 3.07024C227.584 3.02086 226.307 2.8913 225.414 2.78318C224.521 2.67506 223.177 2.59372 222.475 2.58527L221.175 2.57242L222.09 3.37431C222.678 3.88365 222.755 4.09963 222.298 3.97364C221.913 3.86953 221.444 3.39666 221.266 2.95739C221.058 2.3994 220.751 2.20937 220.36 2.37839C220.029 2.52431 218.796 2.50455 217.558 2.33203C216.32 2.15951 214.845 2.16208 214.213 2.3534C213.605 2.55203 212.768 2.55737 212.362 2.39207C210.965 1.80014 210.482 1.84476 210.64 2.52474C210.743 2.99602 210.664 2.95794 210.269 2.37037C209.903 1.77754 209.672 1.67949 209.334 1.97453C209.075 2.225 208.707 2.23597 208.443 2.03176C207.896 1.60347 206.581 2.06677 205.947 2.90324C205.614 3.35106 205.554 3.2915 205.71 2.65242C205.863 2.06725 205.69 1.82209 205.164 1.88089C204.736 1.91497 204.046 1.82751 203.581 1.68531C203.115 1.54311 202.811 1.64242 202.861 1.90501C203.063 2.6948 201.855 2.80635 201.654 2.01656C201.522 1.55054 201.307 1.40224 201.004 1.62556C200.748 1.82212 199.991 1.86555 199.241 1.71852C198.502 1.57513 197.626 1.49943 197.222 1.5408C196.846 1.5769 196.175 1.46795 195.808 1.30102C194.881 0.880061 194.21 1.62292 194.605 2.63639C194.825 3.23937 194.737 3.56965 194.276 3.8408C193.791 4.10465 193.687 4.01794 193.852 3.47774C194.401 1.68126 191.53 1.5178 190.469 3.2815C189.92 4.22616 189.758 4.28656 189.359 3.62889C189.109 3.16775 189.067 2.57813 189.286 2.20529C189.551 1.76436 189.378 1.47788 188.698 1.27005C187.553 0.920024 187.066 1.82902 188.063 2.40842C188.517 2.67098 188.332 2.76541 187.471 2.6808C186.535 2.58686 186.319 2.43857 186.609 2.04627C186.851 1.72205 186.694 1.46798 186.166 1.36145C185.741 1.25897 185.172 1.41463 184.956 1.69224C184.702 2.05414 184.187 1.99259 183.318 1.50719C182.278 0.941972 182.072 0.933889 182.216 1.52755C182.357 2.13378 182.285 2.1119 181.839 1.43965C181.388 0.738625 181.198 0.762955 180.485 1.60267C180.019 2.14695 179.326 2.62196 178.938 2.65441C178.367 2.68607 178.362 2.61596 178.925 2.22485C179.5 1.83739 179.348 1.69476 177.894 1.29128C176.956 1.03201 176.119 0.954679 176.061 1.14312C176.004 1.33156 175.686 1.26189 175.35 0.994463C174.939 0.676386 174.785 0.711657 174.868 1.08042C175.049 1.80902 171.926 1.82956 170.762 1.11644C170.303 0.825119 166.405 0.649998 162.05 0.692125C137.634 0.96136 106.236 2.99725 75.8686 6.26862C70.2703 6.8786 64.2357 7.46512 62.4256 7.58482C57.5576 7.89608 47.8319 9.16737 47.7244 9.51913C47.6745 9.68244 47.2748 9.75259 46.8459 9.66266C46.0396 9.48484 34.2778 11.2738 33.0579 11.7663C32.6868 11.9138 31.3218 12.1559 29.9917 12.3262C28.6536 12.4803 22.0432 13.7562 15.2397 15.1516C2.07208 17.8707 0.536049 18.4589 0.603307 20.8834C0.645503 23.1767 2.50775 23.5262 7.80228 22.2464C10.3211 21.6428 16.1753 20.4517 20.8753 19.5808C25.5754 18.7099 29.3595 17.8063 29.2979 17.5814C29.2439 17.3314 29.5336 17.365 29.9603 17.6328C30.3751 17.897 31.5644 17.9309 32.6006 17.6982C33.6329 17.4781 35.4887 17.1663 36.7433 16.9866C41.1961 16.3699 43.1712 16.0945 47.0378 15.5184C58.3135 13.8692 86.7366 10.7727 107.55 8.9351C124.317 7.45367 134.14 6.84413 151.549 6.16339C161.699 5.76373 167.383 5.3446 167.502 4.95516C167.598 4.64109 167.901 4.41778 168.127 4.48706Z" fill="#FF784B"/></svg>
