<svg xmlns="http://www.w3.org/2000/svg" version="1.1" xmlns:xlink="http://www.w3.org/1999/xlink" width="512" height="512" x="0" y="0" viewBox="0 0 512 512" style="enable-background:new 0 0 512 512" xml:space="preserve" class=""><g><path d="M478.5 144.9h-15.2c.4-1.5.6-3 .6-4.6 0-4.9-1.9-9.4-5.3-12.9-3.4-3.4-8-5.3-12.9-5.3s-9.4 1.9-12.9 5.3L410 150.2c-3.4 3.4-5.3 8-5.3 12.9s1.9 9.4 5.3 12.9l22.8 22.8c3.4 3.4 8 5.3 12.9 5.3s9.4-1.9 12.9-5.3 5.3-8 5.3-12.9c0-1.6-.2-3.1-.6-4.6h15.2c10 0 18.2-8.2 18.2-18.2s-8.2-18.2-18.2-18.2zm8.2 18.2c0 4.5-3.7 8.2-8.2 8.2h-35.8l8.8 8.8c3.2 3.2 3.2 8.4 0 11.6s-8.4 3.2-11.6 0l-22.8-22.8c-3.2-3.2-3.2-8.4 0-11.6l22.8-22.8c3.2-3.2 8.4-3.2 11.6 0s3.2 8.4 0 11.6l-8.8 8.8h35.8c4.5 0 8.2 3.6 8.2 8.2zm-86.2 20.3h-6.7v-40.7h6.7c10 0 18.2-8.2 18.2-18.2s-8.2-18.2-18.2-18.2h-24.9c-10 0-18.2 8.2-18.2 18.2v77.1c0 10 8.2 18.2 18.2 18.2h24.9c10 0 18.2-8.2 18.2-18.2s-8.2-18.2-18.2-18.2zm8.2 18.2c0 4.5-3.7 8.2-8.2 8.2h-24.9c-4.5 0-8.2-3.7-8.2-8.2v-77.1c0-4.5 3.7-8.2 8.2-8.2h24.9c4.5 0 8.2 3.7 8.2 8.2s-3.7 8.2-8.2 8.2h-16.7v60.7h16.7c4.5 0 8.2 3.7 8.2 8.2zM512 163.1c0-50.7-41.3-92-92-92-28.2 0-53.5 12.8-70.4 32.8H59.2C26.6 103.9 0 130.4 0 163.1v218.7C0 414.4 26.6 441 59.2 441H420c32.6 0 59.2-26.6 59.2-59.2V233.4c20-16.9 32.8-42.1 32.8-70.3zm-92-82c45.3 0 82 36.7 82 82s-36.7 82-82 82-82-36.7-82-82 36.7-82 82-82zM59.2 113.9h283.1c-9 14.2-14.3 31.1-14.3 49.2 0 25.4 10.3 48.4 27 65l-80.6 80.6c-19.2 19.2-50.4 19.2-69.6 0L24.4 128.3c8.9-8.9 21.2-14.4 34.8-14.4zM10 381.7V163.1c0-10 3-19.2 8.1-27l136.3 136.3L18.1 408.7c-5.1-7.7-8.1-17-8.1-27zm410 49.2H59.2c-13.6 0-25.9-5.5-34.8-14.4l137.1-137.1 36.3 36.3c11.2 11.2 26.1 17.3 41.9 17.3s30.7-6.2 41.9-17.3l36.3-36.3L455 416.5c-9.1 8.9-21.4 14.4-35 14.4zm49.2-49.2c0 10-3 19.2-8.1 27L324.8 272.4l37.6-37.6c15.8 12.7 35.8 20.3 57.6 20.3 18.1 0 35-5.2 49.2-14.3z" fill="#2f438d" opacity="1" data-original="#000000" class=""></path></g></svg>